<svg width="1200" height="630" viewBox="0 0 1200 630" xmlns="http://www.w3.org/2000/svg">
    <rect width="1200" height="630" fill="#020617"/>
    <g stroke="#1e293b" stroke-width="1">
        <path d="M0 100 H1200 M0 200 H1200 M0 300 H1200 M0 400 H1200 M0 500 H1200" />
        <path d="M200 0 V630 M400 0 V630 M600 0 V630 M800 0 V630 M1000 0 V630" />
    </g>

    <g transform="translate(100, 165) scale(0.6)">
        <rect width="512" height="512" rx="100" fill="#0f172a" stroke="#3b82f6" stroke-width="4"/>
        <path d="M160 380 V180 H300" stroke="#1e293b" stroke-width="12" fill="none"/>
        <circle cx="160" cy="380" r="35" fill="#3b82f6" fill-opacity="0.3"/>
        <circle cx="160" cy="180" r="45" fill="#3b82f6" fill-opacity="0.5"/>
        <g transform="translate(340, 180)">
            <circle cx="0" cy="0" r="80" fill="#3b82f6"/>
            <line x1="65" y1="-65" x2="110" y2="-110" stroke="#3b82f6" stroke-width="30" stroke-linecap="round"/>
            <path d="M85 -110 H110 V-85" stroke="#3b82f6" stroke-width="30" stroke-linecap="round" stroke-linejoin="round" fill="none"/>
        </g>
    </g>

    <text x="460" y="280" font-family="Arial, sans-serif" font-weight="900" font-size="85" fill="white" letter-spacing="-2">
        DCA &amp; <tspan fill="#3b82f6">Dividend</tspan>
    </text>
    <text x="465" y="360" font-family="Arial, sans-serif" font-weight="300" font-size="60" fill="#64748b" letter-spacing="10">
        SIMULATOR
    </text>
    
    <rect x="465" y="405" width="600" height="2" fill="#3b82f6" fill-opacity="0.6"/>
    
    <text x="465" y="445" font-family="Arial, sans-serif" font-size="22" font-weight="600" fill="#64748b" letter-spacing="5">
        CASHFLOW NAVIGATION LAB
    </text>

    <text x="1150" y="600" font-family="monospace" font-size="12" fill="#1e293b" text-anchor="end">
        V2.1 // 25.0441° N, 121.5325° E
    </text>
</svg>